<svg width="32" height="33" viewBox="0 0 32 33" fill="none" xmlns="http://www.w3.org/2000/svg">
<rect width="32" height="32" transform="translate(0 0.5)" fill="#F2F2F2"/>
<path d="M23.5808 17.7251C23.5458 14.2075 26.4493 12.5204 26.5791 12.4352C24.9473 10.0493 22.405 9.7219 21.5002 9.68464C19.3384 9.46507 17.2799 10.958 16.1832 10.958C15.0887 10.958 13.3942 9.71682 11.6016 9.74843C9.24333 9.78342 7.06965 11.12 5.8561 13.231C3.40698 17.4796 5.22957 23.776 7.61604 27.2242C8.78274 28.9096 10.1741 30.8061 11.9995 30.7367C13.7589 30.6673 14.4227 29.5988 16.5495 29.5988C18.6763 29.5988 19.2735 30.7367 21.1345 30.7011C23.0265 30.6667 24.2259 28.9835 25.383 27.2913C26.7225 25.3333 27.2739 23.4373 27.3066 23.3414C27.2654 23.3222 23.6186 21.9252 23.5808 17.7251Z" fill="black"/>
<path d="M20.084 7.4027C21.0521 6.22753 21.7079 4.59459 21.5296 2.96899C20.1326 3.02544 18.4415 3.8975 17.4385 5.07155C16.5399 6.11351 15.7542 7.77241 15.9647 9.36866C17.5232 9.48945 19.1126 8.57561 20.084 7.4027Z" fill="black"/>
</svg>
