<svg width="48" height="48" viewBox="0 0 48 48" fill="none" xmlns="http://www.w3.org/2000/svg">
<g clip-path="url(#clip0_235_44)">
<rect width="48" height="48" fill="white"/>
<path d="M25.275 38.1187H22.725C20.5594 38.1187 18.7969 36.3656 18.7969 34.1906V28.5094C18.7969 26.3437 20.55 24.5812 22.725 24.5812H25.275C27.4406 24.5812 29.2031 26.3344 29.2031 28.5094V34.1906C29.2031 36.3656 27.4406 38.1187 25.275 38.1187Z" fill="#EDBB98"/>
<path d="M29.2031 34.1063V34.2C29.2031 36.3656 27.45 38.1281 25.275 38.1281H22.725C20.5594 38.1281 18.7969 36.375 18.7969 34.2V34.1063C10.6219 35.8781 4.25623 41.3156 2.54998 47.9625C2.52186 48.0563 13.3781 47.9625 23.9906 47.9625C34.6125 47.9625 45.4594 48.0563 45.4312 47.9625C43.7344 41.3156 37.3781 35.8688 29.2031 34.1063Z" fill="#E6E6E6"/>
<path d="M35.4151 22.4599C36.9026 22.7832 38.4714 21.376 38.919 19.3167C39.3666 17.2575 38.5235 15.326 37.036 15.0027C35.5485 14.6793 33.9797 16.0866 33.5322 18.1459C33.0846 20.2051 33.9276 22.1366 35.4151 22.4599Z" fill="#F4C5A2"/>
<path d="M10.9664 15.2493C9.47883 15.5726 8.63579 17.5041 9.08339 19.5633C9.53098 21.6226 11.0997 23.0298 12.5872 22.7065C14.0748 22.3832 14.9178 20.4517 14.4702 18.3925C14.0226 16.3332 12.4539 14.9259 10.9664 15.2493Z" fill="#F4C5A2"/>
<path d="M24.0281 32.325C30.5778 32.325 35.8874 26.1298 35.8874 18.4875C35.8874 10.8453 30.5778 4.65002 24.0281 4.65002C17.4783 4.65002 12.1687 10.8453 12.1687 18.4875C12.1687 26.1298 17.4783 32.325 24.0281 32.325Z" fill="#F4C5A2"/>
<path d="M36.6188 9.15C36.5156 7.99688 36.1781 6.15 35.7188 5.07188C34.3219 1.80938 29.325 0.403128 25.9688 0.084378C19.7531 -0.374997 17.5781 1.15313 16.875 2.4375C16.875 2.4375 9.16875 3.42188 10.6125 13.3125L12.2813 19.4344C12.2813 19.4344 15.2906 11.175 19.2375 9.1125L18.3844 7.25625C18.675 7.64063 18.975 8.01563 19.2844 8.38125C19.4531 8.57813 19.6313 8.78438 19.8094 8.98125C20.7563 10.0313 21.825 11.025 23.25 11.5031C24.6844 11.9813 26.2969 11.8688 27.7406 11.5125C29.0625 11.1844 30.5906 10.0875 31.9875 10.3125C33 10.4719 33.6656 11.3625 34.0875 12.2156C35.2219 14.4656 35.5688 16.9781 35.9063 19.4438C36.4125 15.9656 36.9375 12.6281 36.6188 9.15Z" fill="#3F2820"/>
<path d="M34.1344 25.7438C33.5812 26.1094 27.15 30.2438 25.3031 26.5219C25.3031 26.5219 24.5719 26.0906 24.0562 26.2781C23.5406 26.0906 22.8094 26.5219 22.8094 26.5219C20.8781 30.4125 13.9406 25.7156 13.9406 25.7156C14.0156 25.8844 14.1 26.0531 14.1844 26.2219C16.275 29.8406 19.8 32.2406 23.8031 32.325C23.8969 32.325 23.9812 32.325 24.0562 32.3156C24.1125 32.3156 24.1875 32.3156 24.2625 32.3156C28.4437 32.2313 32.0812 29.625 34.1344 25.7438Z" fill="#3F2820"/>
<path d="M33.0375 35.25L24.8344 43.9781L14.9437 35.2594C8.66248 37.6875 3.97498 42.4031 2.54998 47.9625C2.52186 48.0563 13.3781 47.9625 23.9906 47.9625C34.6125 47.9625 45.4594 48.0563 45.4312 47.9625C44.0156 42.3938 39.3187 37.6781 33.0375 35.25Z" fill="#ED1E79"/>
<path d="M18.3187 24.8344C18.4312 24.6 18.6187 24.4032 18.8344 24.2531C19.05 24.0938 19.2844 23.9813 19.5281 23.8781C20.0156 23.6813 20.5312 23.5781 21.0375 23.5219C21.5437 23.4656 22.0594 23.4563 22.5656 23.475C23.0719 23.5031 23.5687 23.55 24.0844 23.6438L23.9531 23.6344H24.1594L24.0281 23.6438C24.5437 23.55 25.0406 23.4938 25.5469 23.475C26.0531 23.4563 26.5594 23.4656 27.075 23.5219C27.5812 23.5781 28.0969 23.6813 28.5844 23.8781C28.8281 23.9813 29.0718 24.0938 29.2781 24.2531C29.4937 24.4125 29.6812 24.6094 29.7937 24.8344C29.3625 24.5719 28.9031 24.5157 28.4437 24.4875C27.9844 24.4688 27.5156 24.4875 27.0562 24.5344C26.5875 24.5719 26.1281 24.6375 25.6594 24.7031C25.2 24.7688 24.7219 24.8438 24.2812 24.9281L24.2156 24.9375H24.15H23.9437H23.8781L23.8125 24.9281C23.3719 24.8438 22.8937 24.7688 22.4344 24.7031C21.9656 24.6375 21.5062 24.5719 21.0375 24.5344C20.5781 24.4969 20.1094 24.4688 19.65 24.4875C19.2094 24.5063 18.75 24.5719 18.3187 24.8344Z" fill="#3F2820"/>
</g>
<defs>
<clipPath id="clip0_235_44">
<rect width="48" height="48" fill="white"/>
</clipPath>
</defs>
</svg>
