<svg width="48" height="48" viewBox="0 0 48 48" fill="none" xmlns="http://www.w3.org/2000/svg">
<rect width="48" height="48" fill="white"/>
<path d="M11.0364 8.64861C12.2982 9.91049 11.7535 11.8932 11.7535 14.417C9.22886 14.417 7.24886 14.9598 5.98604 13.6979C5.28948 13.0013 5.28948 11.8707 5.98604 11.1741C6.61792 10.5433 7.24886 10.5433 8.1948 10.8582C7.8798 9.91227 7.87979 9.28143 8.51073 8.65039C9.20917 7.95196 10.3398 7.95196 11.0364 8.64861Z" fill="#EF3E5C"/>
<path d="M8.51051 9.84138C9.20895 9.14294 10.3396 9.14294 11.0361 9.83951C11.5976 10.4009 11.801 11.1054 11.8543 11.9364C11.9121 10.5736 11.849 9.46132 11.0363 8.6486C10.3398 7.95194 9.20914 7.95194 8.5107 8.65048C7.96864 9.19254 7.89308 9.73516 8.08208 10.477C8.1643 10.2576 8.30248 10.0493 8.51051 9.84138Z" fill="#E42A53"/>
<path d="M40.3079 37.531C41.5707 38.7929 41.026 40.7757 41.026 43.2995C38.5013 43.2995 36.5203 43.8432 35.2584 42.5804C34.5619 41.8839 34.5619 40.7532 35.2584 40.0567C35.8894 39.4257 36.5203 39.4257 37.4673 39.7417C37.1514 38.7948 37.1514 38.1639 37.7822 37.5329C38.4807 36.8345 39.6114 36.8345 40.3079 37.531Z" fill="#EF3E5C"/>
<path d="M40.3079 37.531C39.6113 36.8345 38.4807 36.8345 37.7823 37.533C37.501 37.8142 37.3458 38.0958 37.2875 38.4052C37.9899 37.8218 39.0321 37.8588 39.6889 38.5155C40.7843 39.61 40.5198 41.2473 40.4303 43.3091C40.6255 43.3033 40.8238 43.2996 41.026 43.2996C41.026 40.7757 41.5707 38.7929 40.3079 37.531Z" fill="#E42A53"/>
<path d="M41.926 8.1357C42.7398 8.94955 42.7398 10.2676 41.927 11.0795C40.4561 12.5503 38.146 11.9157 35.2032 11.9157C35.2032 8.97383 34.5704 6.66477 36.0414 5.19289C36.8531 4.38102 38.1714 4.38102 38.9832 5.19289C39.7192 5.92883 39.7192 6.66477 39.3507 7.7682C40.4542 7.39986 41.1901 7.39986 41.926 8.1357Z" fill="#EF3E5C"/>
<path d="M36.638 6.29626C37.4476 5.48664 38.7606 5.48486 39.573 6.29008C39.5176 5.89764 39.3355 5.54514 38.9833 5.19301C38.1715 4.38114 36.8533 4.38114 36.0415 5.19301C34.5705 6.66489 35.2033 8.97395 35.2033 11.9158C35.3966 11.9158 35.5869 11.9186 35.7746 11.9233C35.6724 9.5012 35.3548 7.58017 36.638 6.29626Z" fill="#E42A53"/>
<path d="M30.8495 20.6074C30.9452 19.8489 30.4249 19.1692 29.749 19.1692H27.5505H22.4534L15.1596 19.2002C14.4837 19.2029 13.9652 19.8846 14.0637 20.643C14.5718 24.5599 16.8837 30.3733 19.9052 32.6477V35.3102V38.7076H13.7037C11.4987 38.7076 9.71179 36.9207 9.71179 34.7148V21.7182C9.71179 14.6805 15.4165 8.97571 22.4534 8.97571C29.4912 8.97571 35.1959 14.6805 35.1959 21.7182V34.7148C35.1959 36.9207 33.409 38.7076 31.204 38.7076H25.0025V35.3102V32.6514C28.0351 30.3741 30.3526 24.5382 30.8495 20.6074Z" fill="#743629"/>
<path d="M10.7429 36.0836V23.0871C10.7429 16.0492 16.4476 10.3446 23.4845 10.3446C27.3366 10.3446 30.7891 12.0535 33.1256 14.7548C30.8508 11.2753 26.921 8.97571 22.4532 8.97571C15.4164 8.97571 9.71167 14.6805 9.71167 21.7182V34.7148C9.71167 35.9273 10.2523 37.0124 11.1047 37.7445C10.873 37.2387 10.7429 36.6766 10.7429 36.0836Z" fill="#662C22"/>
<path d="M27.5508 19.638C27.4082 19.638 27.2676 19.5733 27.1754 19.4505L24.9515 16.4853L21.9353 19.5007C21.7522 19.6837 21.4555 19.6837 21.2724 19.5006C21.0894 19.3176 21.0894 19.0207 21.2725 18.8377L24.6709 15.4402C24.767 15.3442 24.9006 15.2946 25.0356 15.3042C25.1712 15.3139 25.2958 15.3818 25.3774 15.4905L27.9255 18.888C28.0809 19.0951 28.0389 19.3889 27.8318 19.5442C27.7474 19.6074 27.6487 19.638 27.5508 19.638Z" fill="#662C22"/>
<path d="M29.7489 19.1693C30.4248 19.1693 30.9451 19.8489 30.8494 20.6074C30.3525 24.5383 28.035 30.3743 25.0023 32.6514V35.3102H19.905V32.6477C16.8835 30.3733 14.5716 24.5599 14.0635 20.643C13.965 19.8846 14.4835 19.203 15.1594 19.2002L22.4532 19.1693H27.5504H29.7489Z" fill="#FFC592"/>
<path d="M15.0479 21.5356C14.9495 20.7772 15.4679 20.0956 16.1439 20.0928L23.4376 20.0618H28.5348H30.7332C30.7605 20.0618 30.787 20.0647 30.8138 20.0669C30.6773 19.5536 30.2571 19.1693 29.7489 19.1693H27.5504H22.4532L15.1595 19.2002C14.4835 19.2029 13.9651 19.8846 14.0635 20.643C14.571 24.5548 16.8776 30.3577 19.8934 32.6383C17.3685 29.9727 15.4986 25.0094 15.0479 21.5356Z" fill="#EFA873"/>
<path d="M22.5164 29.3615C21.4198 29.3615 20.5963 28.9591 20.5449 28.9335C20.3133 28.8177 20.2195 28.5362 20.3352 28.3045C20.4507 28.0734 20.7317 27.9798 20.9628 28.0942C20.9846 28.1049 22.4863 28.8229 23.9434 28.0949C24.1748 27.9791 24.4565 28.0732 24.5723 28.3046C24.688 28.5363 24.594 28.8178 24.3626 28.9335C23.7202 29.2545 23.082 29.3615 22.5164 29.3615Z" fill="#EFA873"/>
<path d="M19.9046 23.4142C19.8153 23.4142 19.7249 23.3888 19.645 23.3355C18.6553 22.6757 17.6567 23.3097 17.6147 23.337C17.3985 23.4774 17.1084 23.4178 16.9665 23.2023C16.8248 22.987 16.8824 22.6984 17.0969 22.5555C17.1595 22.5138 18.6486 21.5444 20.1651 22.5555C20.3805 22.699 20.4386 22.9901 20.2951 23.2055C20.2048 23.341 20.0561 23.4142 19.9046 23.4142Z" fill="#EFA873"/>
<path d="M27.5499 23.4142C27.4606 23.4142 27.3703 23.3888 27.2903 23.3355C26.3005 22.6757 25.3021 23.3097 25.2601 23.337C25.0437 23.4774 24.7537 23.4177 24.6119 23.2023C24.4702 22.987 24.5278 22.6984 24.7423 22.5555C24.8049 22.5137 26.294 21.5446 27.8105 22.5555C28.0259 22.699 28.0841 22.9901 27.9405 23.2055C27.8501 23.341 27.7014 23.4142 27.5499 23.4142Z" fill="#EFA873"/>
</svg>
