<svg width="32" height="33" viewBox="0 0 32 33" fill="none" xmlns="http://www.w3.org/2000/svg">
<g id="2993685_brand_brands_google_logo_logos_icon (1) 1" clip-path="url(#clip0_272_100)">
<rect width="32" height="32" transform="translate(0 0.5)" fill="#F2F2F2"/>
<g id="Group">
<path id="Vector" d="M16 7.16667C18.1557 7.16667 20.135 7.9047 21.7151 9.13208L26.5646 4.50545C23.745 2.01994 20.0542 0.5 16 0.5C9.85654 0.5 4.5289 3.96655 1.84775 9.04647L7.24033 13.3037C8.54664 9.72583 11.97 7.16667 16 7.16667Z" fill="#F44336"/>
<path id="Vector_2" d="M31.8614 18.5025C31.9447 17.847 32 17.1783 32 16.5001C32 15.3563 31.8751 14.2425 31.647 13.1667H16V19.8334H24.6483C23.9486 21.6518 22.703 23.1904 21.1174 24.2594L26.5299 28.5325C29.3992 26.014 31.3626 22.4872 31.8614 18.5025Z" fill="#2196F3"/>
<path id="Vector_3" d="M6.66667 16.4999C6.66667 15.3753 6.87581 14.3021 7.24032 13.3036L1.84774 9.04639C0.672445 11.2733 0 13.8068 0 16.4999C0 19.1629 0.660075 21.6684 1.81095 23.8772L7.21037 19.6145C6.86458 18.6392 6.66667 17.5938 6.66667 16.4999Z" fill="#FFC107"/>
<path id="Vector_4" d="M16 25.8333C11.9393 25.8333 8.49389 23.2353 7.21036 19.6145L1.81094 23.8772C4.47899 28.9979 9.82641 32.4999 16 32.4999C20.037 32.4999 23.7183 31.0002 26.5299 28.5323L21.1173 24.2592C19.6549 25.2451 17.9045 25.8333 16 25.8333Z" fill="#00B060"/>
<path id="Vector_5" opacity="0.1" d="M16 32.1667C11.2911 32.1667 7.05696 30.2238 4.06339 27.1284C6.9938 30.4171 11.2486 32.5 16 32.5C20.7074 32.5 24.927 30.4582 27.8508 27.221C24.8661 30.2662 20.6641 32.1667 16 32.1667Z" fill="black"/>
<path id="Vector_6" opacity="0.1" d="M16 19.5V19.8333H24.6483L24.7833 19.5H16Z" fill="black"/>
<path id="Vector_7" d="M31.9926 16.6961C31.9937 16.6305 32 16.5659 32 16.5001C32 16.4814 31.9971 16.4635 31.997 16.4448C31.9961 16.5288 31.9919 16.6118 31.9926 16.6961Z" fill="#E6E6E6"/>
<path id="Vector_8" opacity="0.2" d="M16 13.1667V13.5001H31.7141C31.6931 13.3901 31.6702 13.276 31.647 13.1667H16Z" fill="#F0475C"/>
<path id="Vector_9" d="M31.647 13.1667H16V19.8333H24.6483C23.3034 23.3288 19.9696 25.8333 16 25.8333C10.8454 25.8333 6.66667 21.6546 6.66667 16.5C6.66667 11.3453 10.8454 7.16667 16 7.16667C17.8691 7.16667 19.5919 7.74089 21.0514 8.68758C21.2747 8.83276 21.5052 8.96908 21.7151 9.13208L26.5646 4.50545L26.4552 4.42131C23.6493 1.98942 20.0047 0.5 16 0.5C7.16341 0.5 0 7.66341 0 16.5C0 25.3365 7.16341 32.5 16 32.5C24.1569 32.5 30.8739 26.3917 31.8614 18.5024C31.9447 17.8469 32 17.1782 32 16.5C32 15.3562 31.8751 14.2424 31.647 13.1667Z" fill="url(#paint0_linear_272_100)"/>
<path id="Vector_10" opacity="0.1" d="M21.0513 8.35417C19.5919 7.40747 17.8691 6.83325 16 6.83325C10.8454 6.83325 6.66666 11.0119 6.66666 16.1666C6.66666 16.2228 6.66741 16.2668 6.66839 16.3228C6.75831 11.2459 10.9016 7.16659 16 7.16659C17.8691 7.16659 19.5919 7.7408 21.0513 8.6875C21.2747 8.83268 21.5052 8.96899 21.7151 9.132L26.5646 4.50537L21.7151 8.79867C21.5052 8.63566 21.2747 8.49935 21.0513 8.35417Z" fill="black"/>
<path id="Vector_11" opacity="0.2" d="M16 0.833333C19.9667 0.833333 23.5772 2.29785 26.3724 4.6888L26.5646 4.50545L26.4179 4.3777C23.6119 1.94581 20.0047 0.5 16 0.5C7.16341 0.5 0 7.66341 0 16.5C0 16.5562 0.00781253 16.6105 0.00838213 16.6667C0.0987141 7.9078 7.21964 0.833333 16 0.833333Z" fill="#F0475C"/>
</g>
</g>
<defs>
<linearGradient id="paint0_linear_272_100" x1="0" y1="16.5" x2="32" y2="16.5" gradientUnits="userSpaceOnUse">
<stop stop-color="white" stop-opacity="0.2"/>
<stop offset="1" stop-color="white" stop-opacity="0"/>
</linearGradient>
<clipPath id="clip0_272_100">
<rect width="32" height="32" fill="white" transform="translate(0 0.5)"/>
</clipPath>
</defs>
</svg>
