<svg width="28" height="28" viewBox="0 0 28 28" fill="none" xmlns="http://www.w3.org/2000/svg">
<path d="M14 0.34668C10.292 0.34668 9.827 0.362397 8.37073 0.428842C6.9175 0.495179 5.92499 0.725949 5.05649 1.06349C4.15867 1.41241 3.39726 1.87926 2.63823 2.63828C1.8792 3.39731 1.41235 4.15872 1.06343 5.05654C0.725895 5.92499 0.495125 6.9175 0.428788 8.37073C0.362343 9.827 0.34668 10.292 0.34668 14C0.34668 17.708 0.362343 18.1729 0.428788 19.6292C0.495125 21.0824 0.725895 22.0749 1.06343 22.9434C1.41235 23.8412 1.8792 24.6026 2.63823 25.3617C3.39726 26.1207 4.15867 26.5876 5.05649 26.9365C5.92499 27.274 6.9175 27.5048 8.37073 27.5711C9.827 27.6375 10.292 27.6533 14 27.6533C17.708 27.6533 18.1729 27.6375 19.6292 27.5711C21.0824 27.5048 22.0749 27.274 22.9434 26.9365C23.8412 26.5876 24.6026 26.1207 25.3617 25.3617C26.1207 24.6026 26.5876 23.8412 26.9365 22.9434C27.274 22.0749 27.5048 21.0824 27.5711 19.6292C27.6375 18.1729 27.6533 17.708 27.6533 14C27.6533 10.292 27.6375 9.827 27.5711 8.37073C27.5048 6.9175 27.274 5.92499 26.9365 5.05654C26.5876 4.15872 26.1207 3.39731 25.3617 2.63828C24.6026 1.87926 23.8412 1.41241 22.9434 1.06349C22.0749 0.725949 21.0824 0.495179 19.6292 0.428842C18.1729 0.362397 17.708 0.34668 14 0.34668ZM14 2.80678C17.6455 2.80678 18.0774 2.82066 19.5171 2.88634C20.8482 2.9471 21.5712 3.16952 22.0523 3.35645C22.6896 3.60412 23.1444 3.90004 23.6221 4.37778C24.0999 4.85553 24.3958 5.3104 24.6435 5.94765C24.8305 6.42875 25.0529 7.15168 25.1136 8.48287C25.1793 9.92255 25.1932 10.3544 25.1932 14C25.1932 17.6455 25.1793 18.0774 25.1136 19.5171C25.0529 20.8482 24.8305 21.5712 24.6435 22.0523C24.3958 22.6896 24.0999 23.1444 23.6221 23.6221C23.1444 24.0999 22.6896 24.3958 22.0523 24.6435C21.5712 24.8305 20.8482 25.0529 19.5171 25.1136C18.0776 25.1793 17.6458 25.1932 14 25.1932C10.3541 25.1932 9.92239 25.1793 8.48287 25.1136C7.15168 25.0529 6.42875 24.8305 5.94765 24.6435C5.31035 24.3958 4.85553 24.0999 4.37773 23.6221C3.89998 23.1444 3.60407 22.6896 3.35645 22.0523C3.16947 21.5712 2.94704 20.8482 2.88629 19.5171C2.8206 18.0774 2.80673 17.6455 2.80673 14C2.80673 10.3544 2.8206 9.92255 2.88629 8.48287C2.94704 7.15168 3.16947 6.42875 3.35645 5.94765C3.60407 5.3104 3.89998 4.85553 4.37773 4.37778C4.85553 3.90004 5.31035 3.60412 5.94765 3.35645C6.42875 3.16952 7.15168 2.9471 8.48287 2.88634C9.92255 2.82066 10.3544 2.80678 14 2.80678Z" fill="white"/>
<path d="M14 18.551C11.4865 18.551 9.44888 16.5134 9.44888 13.9999C9.44888 11.4864 11.4865 9.44882 14 9.44882C16.5135 9.44882 18.5511 11.4864 18.5511 13.9999C18.5511 16.5134 16.5135 18.551 14 18.551ZM14 6.98877C10.1278 6.98877 6.98883 10.1277 6.98883 13.9999C6.98883 17.8721 10.1278 21.0111 14 21.0111C17.8721 21.0111 21.0111 17.8721 21.0111 13.9999C21.0111 10.1277 17.8721 6.98877 14 6.98877Z" fill="white"/>
<path d="M22.9265 6.71186C22.9265 7.61673 22.193 8.35022 21.2881 8.35022C20.3833 8.35022 19.6497 7.61673 19.6497 6.71186C19.6497 5.80699 20.3833 5.07349 21.2881 5.07349C22.193 5.07349 22.9265 5.80699 22.9265 6.71186Z" fill="white"/>
</svg>
