<svg width="17" height="17" viewBox="0 0 17 17" fill="none" xmlns="http://www.w3.org/2000/svg">
<g id="magnifying-glass--glass-search-magnifying">
<path id="Union" fill-rule="evenodd" clip-rule="evenodd" d="M2.43148 7.29164C2.43148 6.0024 2.94363 4.76596 3.85526 3.85433C4.76689 2.9427 6.00333 2.43055 7.29258 2.43055C8.58182 2.43055 9.81826 2.9427 10.7299 3.85433C11.6415 4.76596 12.1537 6.0024 12.1537 7.29164C12.1537 8.58089 11.6415 9.81733 10.7299 10.729C9.81826 11.6406 8.58182 12.1527 7.29258 12.1527C6.00333 12.1527 4.76689 11.6406 3.85526 10.729C2.94363 9.81733 2.43148 8.58089 2.43148 7.29164ZM7.29258 1.37887e-07C6.145 -0.000146306 5.01359 0.270572 3.99036 0.790137C2.96714 1.3097 2.08099 2.06344 1.404 2.99006C0.727001 3.91667 0.278272 4.98999 0.0943045 6.12273C-0.0896627 7.25547 -0.00367317 8.41563 0.345279 9.50887C0.694232 10.6021 1.29629 11.5975 2.1025 12.4142C2.90871 13.2309 3.89629 13.8458 4.98493 14.2088C6.07357 14.5718 7.23253 14.6728 8.36755 14.5035C9.50257 14.3341 10.5816 13.8993 11.5169 13.2343L14.9403 16.6578C15.1695 16.8791 15.4765 17.0016 15.7951 16.9989C16.1138 16.9961 16.4186 16.8683 16.6439 16.643C16.8692 16.4176 16.997 16.1128 16.9998 15.7942C17.0026 15.4755 16.8801 15.1686 16.6587 14.9394L13.2365 11.5172C14.0122 10.4263 14.4726 9.14293 14.5674 7.80774C14.6621 6.47255 14.3875 5.13705 13.7736 3.94757C13.1597 2.7581 12.2303 1.76055 11.0871 1.06424C9.94391 0.367937 8.63112 -0.00026013 7.29258 1.37887e-07Z" fill="black" fill-opacity="0.6"/>
</g>
</svg>
