<svg width="32" height="32" viewBox="0 0 32 32" fill="none" xmlns="http://www.w3.org/2000/svg">
<path d="M16 0C7.16344 0 0 7.16344 0 16C0 24.8366 7.16344 32 16 32C24.8366 32 32 24.8366 32 16C32 7.16344 24.8366 0 16 0ZM24.8273 21.2838C24.3355 21.569 23.2055 21.8314 22.8624 21.8314C22.5193 21.8314 22.4986 22.2079 22.5193 22.4703C22.5399 22.7327 22.4141 23.1206 21.6821 22.9494C20.9501 22.7782 20.1119 22.6549 19.4312 23.0636C18.9374 23.3602 17.8437 24.5698 15.9999 24.5698C14.1562 24.5698 13.0628 23.3605 12.5687 23.0636C11.888 22.6549 11.0499 22.7784 10.3177 22.9494C9.58556 23.1205 9.45994 22.7327 9.48063 22.4703C9.50131 22.2079 9.48063 21.8314 9.13744 21.8314C8.79425 21.8314 7.66431 21.5689 7.1725 21.2838C6.68069 20.9987 6.73563 20.4624 7.25825 20.4624C7.78088 20.4624 8.30481 20.2913 9.60869 19.0933C10.9126 17.8954 10.9697 16.6975 10.9697 16.5496C10.9697 16.4016 10.5022 15.9639 9.68844 15.8194C9.35155 15.7508 9.04634 15.5739 8.81931 15.3157C8.76344 15.256 8.72088 15.1851 8.69445 15.1077C8.66802 15.0303 8.65832 14.9482 8.66601 14.8667C8.67369 14.7853 8.69857 14.7065 8.739 14.6354C8.77944 14.5643 8.8345 14.5026 8.90056 14.4544C9.02708 14.3627 9.17696 14.3086 9.33289 14.2984C9.48882 14.2882 9.64445 14.3224 9.78181 14.3969C10.4111 14.7354 11.1958 14.6442 11.1958 14.6442C11.0914 13.7354 11.0425 12.821 11.0494 11.9062C11.0722 10.5374 12.0329 7.45681 15.9994 7.45681C19.9658 7.45681 20.9266 10.5372 20.9494 11.9062C20.9563 12.821 20.9074 13.7354 20.8029 14.6442C20.8029 14.6442 21.5876 14.7354 22.2169 14.3969C22.3542 14.3224 22.5099 14.2882 22.6658 14.2984C22.8217 14.3086 22.9716 14.3627 23.0981 14.4544C23.1642 14.5026 23.2192 14.5643 23.2597 14.6354C23.3001 14.7065 23.325 14.7853 23.3327 14.8667C23.3404 14.9482 23.3307 15.0303 23.3042 15.1077C23.2778 15.1851 23.2353 15.256 23.1794 15.3157C22.9524 15.5739 22.6471 15.7508 22.3102 15.8194C21.4967 15.9639 21.029 16.4013 21.029 16.5496C21.029 16.6979 21.0863 17.8958 22.3901 19.0933C23.6939 20.2909 24.2188 20.4625 24.7416 20.4625C25.2644 20.4625 25.3191 20.9986 24.8273 21.2838Z" fill="white"/>
</svg>
