<svg width="28" height="28" viewBox="0 0 28 28" fill="none" xmlns="http://www.w3.org/2000/svg">
<path fill-rule="evenodd" clip-rule="evenodd" d="M20.4146 16.7924C20.0662 16.6181 18.3536 15.7755 18.0342 15.6591C17.715 15.5428 17.4828 15.4848 17.2505 15.8334C17.0183 16.1821 16.3507 16.9668 16.1475 17.1993C15.9443 17.4318 15.7411 17.461 15.3928 17.2865C15.0444 17.1122 13.922 16.7444 12.5914 15.5575C11.5559 14.6338 10.8567 13.4931 10.6536 13.1444C10.4503 12.7956 10.6319 12.6071 10.8063 12.4334C10.963 12.2773 11.1547 12.0265 11.3288 11.8231C11.503 11.6198 11.561 11.4744 11.6771 11.242C11.7933 11.0095 11.7352 10.8061 11.6481 10.6317C11.561 10.4574 10.8644 8.74272 10.5741 8.04513C10.2913 7.36596 10.0041 7.45795 9.79032 7.44717C9.58737 7.43711 9.35484 7.43498 9.1227 7.43498C8.89049 7.43498 8.51304 7.52215 8.19372 7.87078C7.87445 8.21952 6.97457 9.06237 6.97457 10.7769C6.97457 12.4916 8.22276 14.1479 8.39694 14.3805C8.57112 14.613 10.8533 18.1315 14.3478 19.6404C15.1788 19.9993 15.8278 20.2136 16.3336 20.3741C17.1681 20.6393 17.9275 20.6019 18.5277 20.5122C19.197 20.4123 20.5887 19.6696 20.879 18.8559C21.1693 18.0421 21.1693 17.3446 21.0822 17.1993C20.9951 17.054 20.7629 16.9668 20.4146 16.7924ZM14.0586 25.471H14.0539C11.9745 25.4701 9.93519 24.9115 8.15609 23.8558L7.73292 23.6046L3.34731 24.7551L4.5179 20.4791L4.24244 20.0407C3.08246 18.1958 2.4698 16.0635 2.47073 13.8739C2.4733 7.48507 7.67151 2.2873 14.0632 2.2873C17.1582 2.28834 20.0676 3.49523 22.2554 5.68552C24.4432 7.87576 25.6473 10.7871 25.6461 13.8833C25.6435 20.2726 20.4453 25.471 14.0586 25.471ZM23.9205 4.02122C21.2883 1.38605 17.7879 -0.0658516 14.0584 -0.0673828C6.37405 -0.0673828 0.11993 6.18635 0.116812 13.8731C0.115828 16.3303 0.75775 18.7285 1.97783 20.8429L0 28.0672L7.39052 26.1285C9.42687 27.2392 11.7195 27.8247 14.0529 27.8254H14.0586C21.7422 27.8254 27.9968 21.571 28 13.8842C28.0014 10.1591 26.5526 6.65639 23.9205 4.02122Z" fill="white"/>
</svg>
